<svg width="20" height="18" viewBox="0 0 20 18" fill="none" xmlns="http://www.w3.org/2000/svg">
<path d="M17.9822 9.00005H9.01465V14.3348C9.01451 14.645 8.94972 14.949 8.82755 15.2126C8.70537 15.4762 8.53065 15.6888 8.32312 15.8266C8.11558 15.9644 7.88347 16.0218 7.65285 15.9925C7.42224 15.9633 7.20237 15.8483 7.01789 15.6607L2.92846 11.5017C2.63992 11.209 2.40593 10.8308 2.24482 10.3968C2.08371 9.96277 1.99986 9.48475 1.99986 9.00005C1.99986 8.51536 2.08371 8.03723 2.24482 7.6032C2.40593 7.16916 2.63992 6.79096 2.92846 6.49833L7.01789 2.33927C7.20237 2.15166 7.42224 2.03674 7.65285 2.00745C7.88347 1.97816 8.11558 2.0356 8.32312 2.17341C8.53065 2.31122 8.70537 2.52385 8.82755 2.7874C8.94972 3.05096 9.01451 3.35502 9.01465 3.66523V4.80117" stroke="#FD5D69" stroke-width="2.15865" stroke-linecap="round" stroke-linejoin="round"/>
</svg>
