<svg width="19" height="17" viewBox="0 0 19 17" fill="none" xmlns="http://www.w3.org/2000/svg">
<path d="M9.55413 2.91296C9.55413 2.91296 9.20694 3.2015 8.84776 3.71549C8.41501 4.33475 7.96483 5.28126 8.08338 6.44471" fill="#FFC6C9"/>
<path d="M9.55413 2.91296C9.55413 2.91296 9.20694 3.2015 8.84776 3.71549M8.08338 6.44471C7.96483 5.28126 8.41501 4.33475 8.84776 3.71549M8.84776 3.71549C9.26446 3.12125 9.78179 2.66124 10.3109 2.31127M10.3109 2.31127C11.2424 1.6951 12.2104 1.42 12.7301 1.35388C13.3376 1.32972 13.9437 1.42907 14.5117 1.64587C15.0797 1.86268 15.5979 2.19243 16.0348 2.61522C17.9243 4.46686 18.2017 7.95827 16.4939 10.0193C14.786 12.0803 11.9859 12.9936 10.2629 15.0899C9.98379 15.4234 9.74578 15.7893 9.55406 16.1797C9.36321 15.7894 9.1261 15.4235 8.84776 15.0899C7.12225 12.9936 4.33962 12.1005 2.61411 10.0193C0.888599 7.93809 1.18383 4.46939 3.07332 2.61522C4.08557 1.40435 6.40074 -0.16219 10.3109 2.31127Z" stroke="#EC888D" stroke-linecap="round" stroke-linejoin="round"/>
</svg>
